<?xml version="1.0" encoding="utf-8" standalone="no"?>
<!DOCTYPE svg PUBLIC "-//W3C//DTD SVG 1.1//EN"
  "http://www.w3.org/Graphics/SVG/1.1/DTD/svg11.dtd">
<svg xmlns:xlink="http://www.w3.org/1999/xlink" width="695.666953pt" height="333.274242pt" viewBox="0 0 695.666953 333.274242" xmlns="http://www.w3.org/2000/svg" version="1.1">
 <metadata>
  <rdf:RDF xmlns:dc="http://purl.org/dc/elements/1.1/" xmlns:cc="http://creativecommons.org/ns#" xmlns:rdf="http://www.w3.org/1999/02/22-rdf-syntax-ns#">
   <cc:Work>
    <dc:type rdf:resource="http://purl.org/dc/dcmitype/StillImage"/>
    <dc:date>2023-12-11T12:18:19.475489</dc:date>
    <dc:format>image/svg+xml</dc:format>
    <dc:creator>
     <cc:Agent>
      <dc:title>Matplotlib v3.8.0, https://matplotlib.org/</dc:title>
     </cc:Agent>
    </dc:creator>
   </cc:Work>
  </rdf:RDF>
 </metadata>
 <defs>
  <style type="text/css">*{stroke-linejoin: round; stroke-linecap: butt}</style>
 </defs>
 <g id="figure_1">
  <g id="patch_1">
   <path d="M 0 333.274242 
L 695.666953 333.274242 
L 695.666953 0 
L 0 0 
z
" style="fill: #ffffff"/>
  </g>
  <g id="axes_1">
   <g id="patch_2">
    <path d="M 62.116875 276.184711 
L 328.981875 276.184711 
L 328.981875 13.468711 
L 62.116875 13.468711 
z
" style="fill: #ffffff"/>
   </g>
   <g id="matplotlib.axis_1">
    <g id="xtick_1">
     <g id="line2d_1">
      <defs>
       <path id="md2cc989568" d="M 0 0 
L 0 9 
" style="stroke: #262626; stroke-width: 1.875"/>
      </defs>
      <g>
       <use xlink:href="#md2cc989568" x="103.502384" y="276.184711" style="fill: #262626; stroke: #262626; stroke-width: 1.875"/>
      </g>
     </g>
     <g id="text_1">
      <!-- 0.20 -->
      <g style="fill: #262626" transform="translate(85.133244 301.222133) scale(0.165 -0.165)">
       <defs>
        <path id="DejaVuSans-30" d="M 2034 4250 
Q 1547 4250 1301 3770 
Q 1056 3291 1056 2328 
Q 1056 1369 1301 889 
Q 1547 409 2034 409 
Q 2525 409 2770 889 
Q 3016 1369 3016 2328 
Q 3016 3291 2770 3770 
Q 2525 4250 2034 4250 
z
M 2034 4750 
Q 2819 4750 3233 4129 
Q 3647 3509 3647 2328 
Q 3647 1150 3233 529 
Q 2819 -91 2034 -91 
Q 1250 -91 836 529 
Q 422 1150 422 2328 
Q 422 3509 836 4129 
Q 1250 4750 2034 4750 
z
" transform="scale(0.015625)"/>
        <path id="DejaVuSans-2e" d="M 684 794 
L 1344 794 
L 1344 0 
L 684 0 
L 684 794 
z
" transform="scale(0.015625)"/>
        <path id="DejaVuSans-32" d="M 1228 531 
L 3431 531 
L 3431 0 
L 469 0 
L 469 531 
Q 828 903 1448 1529 
Q 2069 2156 2228 2338 
Q 2531 2678 2651 2914 
Q 2772 3150 2772 3378 
Q 2772 3750 2511 3984 
Q 2250 4219 1831 4219 
Q 1534 4219 1204 4116 
Q 875 4013 500 3803 
L 500 4441 
Q 881 4594 1212 4672 
Q 1544 4750 1819 4750 
Q 2544 4750 2975 4387 
Q 3406 4025 3406 3419 
Q 3406 3131 3298 2873 
Q 3191 2616 2906 2266 
Q 2828 2175 2409 1742 
Q 1991 1309 1228 531 
z
" transform="scale(0.015625)"/>
       </defs>
       <use xlink:href="#DejaVuSans-30"/>
       <use xlink:href="#DejaVuSans-2e" x="63.623047"/>
       <use xlink:href="#DejaVuSans-32" x="95.410156"/>
       <use xlink:href="#DejaVuSans-30" x="159.033203"/>
      </g>
     </g>
    </g>
    <g id="xtick_2">
     <g id="line2d_2">
      <g>
       <use xlink:href="#md2cc989568" x="166.862757" y="276.184711" style="fill: #262626; stroke: #262626; stroke-width: 1.875"/>
      </g>
     </g>
     <g id="text_2">
      <!-- 0.25 -->
      <g style="fill: #262626" transform="translate(148.493616 301.222133) scale(0.165 -0.165)">
       <defs>
        <path id="DejaVuSans-35" d="M 691 4666 
L 3169 4666 
L 3169 4134 
L 1269 4134 
L 1269 2991 
Q 1406 3038 1543 3061 
Q 1681 3084 1819 3084 
Q 2600 3084 3056 2656 
Q 3513 2228 3513 1497 
Q 3513 744 3044 326 
Q 2575 -91 1722 -91 
Q 1428 -91 1123 -41 
Q 819 9 494 109 
L 494 744 
Q 775 591 1075 516 
Q 1375 441 1709 441 
Q 2250 441 2565 725 
Q 2881 1009 2881 1497 
Q 2881 1984 2565 2268 
Q 2250 2553 1709 2553 
Q 1456 2553 1204 2497 
Q 953 2441 691 2322 
L 691 4666 
z
" transform="scale(0.015625)"/>
       </defs>
       <use xlink:href="#DejaVuSans-30"/>
       <use xlink:href="#DejaVuSans-2e" x="63.623047"/>
       <use xlink:href="#DejaVuSans-32" x="95.410156"/>
       <use xlink:href="#DejaVuSans-35" x="159.033203"/>
      </g>
     </g>
    </g>
    <g id="xtick_3">
     <g id="line2d_3">
      <g>
       <use xlink:href="#md2cc989568" x="230.223129" y="276.184711" style="fill: #262626; stroke: #262626; stroke-width: 1.875"/>
      </g>
     </g>
     <g id="text_3">
      <!-- 0.30 -->
      <g style="fill: #262626" transform="translate(211.853989 301.222133) scale(0.165 -0.165)">
       <defs>
        <path id="DejaVuSans-33" d="M 2597 2516 
Q 3050 2419 3304 2112 
Q 3559 1806 3559 1356 
Q 3559 666 3084 287 
Q 2609 -91 1734 -91 
Q 1441 -91 1130 -33 
Q 819 25 488 141 
L 488 750 
Q 750 597 1062 519 
Q 1375 441 1716 441 
Q 2309 441 2620 675 
Q 2931 909 2931 1356 
Q 2931 1769 2642 2001 
Q 2353 2234 1838 2234 
L 1294 2234 
L 1294 2753 
L 1863 2753 
Q 2328 2753 2575 2939 
Q 2822 3125 2822 3475 
Q 2822 3834 2567 4026 
Q 2313 4219 1838 4219 
Q 1578 4219 1281 4162 
Q 984 4106 628 3988 
L 628 4550 
Q 988 4650 1302 4700 
Q 1616 4750 1894 4750 
Q 2613 4750 3031 4423 
Q 3450 4097 3450 3541 
Q 3450 3153 3228 2886 
Q 3006 2619 2597 2516 
z
" transform="scale(0.015625)"/>
       </defs>
       <use xlink:href="#DejaVuSans-30"/>
       <use xlink:href="#DejaVuSans-2e" x="63.623047"/>
       <use xlink:href="#DejaVuSans-33" x="95.410156"/>
       <use xlink:href="#DejaVuSans-30" x="159.033203"/>
      </g>
     </g>
    </g>
    <g id="xtick_4">
     <g id="line2d_4">
      <g>
       <use xlink:href="#md2cc989568" x="293.583502" y="276.184711" style="fill: #262626; stroke: #262626; stroke-width: 1.875"/>
      </g>
     </g>
     <g id="text_4">
      <!-- 0.35 -->
      <g style="fill: #262626" transform="translate(275.214361 301.222133) scale(0.165 -0.165)">
       <use xlink:href="#DejaVuSans-30"/>
       <use xlink:href="#DejaVuSans-2e" x="63.623047"/>
       <use xlink:href="#DejaVuSans-33" x="95.410156"/>
       <use xlink:href="#DejaVuSans-35" x="159.033203"/>
      </g>
     </g>
    </g>
    <g id="text_5">
     <!-- ${LCC}_{max}$ -->
     <g style="fill: #262626" transform="translate(163.959375 322.330805) scale(0.18 -0.18)">
      <defs>
       <path id="DejaVuSans-Oblique-4c" d="M 1075 4666 
L 1709 4666 
L 909 525 
L 3181 525 
L 3078 0 
L 172 0 
L 1075 4666 
z
" transform="scale(0.015625)"/>
       <path id="DejaVuSans-Oblique-43" d="M 4447 4306 
L 4319 3641 
Q 4019 3944 3683 4091 
Q 3347 4238 2956 4238 
Q 2422 4238 2017 3981 
Q 1613 3725 1319 3200 
Q 1131 2863 1032 2486 
Q 934 2109 934 1728 
Q 934 1091 1264 756 
Q 1594 422 2222 422 
Q 2656 422 3056 561 
Q 3456 700 3834 978 
L 3688 231 
Q 3316 72 2936 -9 
Q 2556 -91 2175 -91 
Q 1278 -91 773 396 
Q 269 884 269 1753 
Q 269 2309 461 2846 
Q 653 3384 1013 3828 
Q 1394 4300 1883 4525 
Q 2372 4750 3022 4750 
Q 3422 4750 3780 4639 
Q 4138 4528 4447 4306 
z
" transform="scale(0.015625)"/>
       <path id="DejaVuSans-Oblique-6d" d="M 5747 2113 
L 5338 0 
L 4763 0 
L 5166 2094 
Q 5191 2228 5203 2325 
Q 5216 2422 5216 2491 
Q 5216 2772 5059 2928 
Q 4903 3084 4622 3084 
Q 4203 3084 3875 2770 
Q 3547 2456 3450 1953 
L 3066 0 
L 2491 0 
L 2900 2094 
Q 2925 2209 2937 2307 
Q 2950 2406 2950 2484 
Q 2950 2769 2794 2926 
Q 2638 3084 2363 3084 
Q 1938 3084 1609 2770 
Q 1281 2456 1184 1953 
L 800 0 
L 225 0 
L 909 3500 
L 1484 3500 
L 1375 2956 
Q 1609 3263 1923 3423 
Q 2238 3584 2597 3584 
Q 2978 3584 3223 3384 
Q 3469 3184 3519 2828 
Q 3781 3197 4126 3390 
Q 4472 3584 4856 3584 
Q 5306 3584 5551 3325 
Q 5797 3066 5797 2591 
Q 5797 2488 5784 2364 
Q 5772 2241 5747 2113 
z
" transform="scale(0.015625)"/>
       <path id="DejaVuSans-Oblique-61" d="M 3438 1997 
L 3047 0 
L 2472 0 
L 2578 531 
Q 2325 219 2001 64 
Q 1678 -91 1281 -91 
Q 834 -91 548 182 
Q 263 456 263 884 
Q 263 1497 752 1853 
Q 1241 2209 2100 2209 
L 2900 2209 
L 2931 2363 
Q 2938 2388 2941 2417 
Q 2944 2447 2944 2509 
Q 2944 2788 2717 2942 
Q 2491 3097 2081 3097 
Q 1800 3097 1504 3025 
Q 1209 2953 897 2809 
L 997 3341 
Q 1322 3463 1633 3523 
Q 1944 3584 2234 3584 
Q 2853 3584 3176 3315 
Q 3500 3047 3500 2534 
Q 3500 2431 3484 2292 
Q 3469 2153 3438 1997 
z
M 2816 1759 
L 2241 1759 
Q 1534 1759 1195 1570 
Q 856 1381 856 984 
Q 856 709 1029 553 
Q 1203 397 1509 397 
Q 1978 397 2328 733 
Q 2678 1069 2791 1631 
L 2816 1759 
z
" transform="scale(0.015625)"/>
       <path id="DejaVuSans-Oblique-78" d="M 3841 3500 
L 2234 1784 
L 3219 0 
L 2559 0 
L 1819 1388 
L 531 0 
L -166 0 
L 1556 1844 
L 641 3500 
L 1300 3500 
L 1972 2234 
L 3144 3500 
L 3841 3500 
z
" transform="scale(0.015625)"/>
      </defs>
      <use xlink:href="#DejaVuSans-Oblique-4c" transform="translate(0 0.78125)"/>
      <use xlink:href="#DejaVuSans-Oblique-43" transform="translate(55.712891 0.78125)"/>
      <use xlink:href="#DejaVuSans-Oblique-43" transform="translate(125.537109 0.78125)"/>
      <use xlink:href="#DejaVuSans-Oblique-6d" transform="translate(195.361328 -15.625) scale(0.7)"/>
      <use xlink:href="#DejaVuSans-Oblique-61" transform="translate(263.549805 -15.625) scale(0.7)"/>
      <use xlink:href="#DejaVuSans-Oblique-78" transform="translate(306.445312 -15.625) scale(0.7)"/>
     </g>
    </g>
   </g>
   <g id="matplotlib.axis_2">
    <g id="ytick_1">
     <g id="line2d_5">
      <defs>
       <path id="m1fed8ece52" d="M 0 0 
L -9 0 
" style="stroke: #262626; stroke-width: 1.875"/>
      </defs>
      <g>
       <use xlink:href="#m1fed8ece52" x="62.116875" y="276.184711" style="fill: #262626; stroke: #262626; stroke-width: 1.875"/>
      </g>
     </g>
     <g id="text_6">
      <!-- 0 -->
      <g style="fill: #262626" transform="translate(39.11875 282.453422) scale(0.165 -0.165)">
       <use xlink:href="#DejaVuSans-30"/>
      </g>
     </g>
    </g>
    <g id="ytick_2">
     <g id="line2d_6">
      <g>
       <use xlink:href="#m1fed8ece52" x="62.116875" y="231.025066" style="fill: #262626; stroke: #262626; stroke-width: 1.875"/>
      </g>
     </g>
     <g id="text_7">
      <!-- 10 -->
      <g style="fill: #262626" transform="translate(28.620625 237.293777) scale(0.165 -0.165)">
       <defs>
        <path id="DejaVuSans-31" d="M 794 531 
L 1825 531 
L 1825 4091 
L 703 3866 
L 703 4441 
L 1819 4666 
L 2450 4666 
L 2450 531 
L 3481 531 
L 3481 0 
L 794 0 
L 794 531 
z
" transform="scale(0.015625)"/>
       </defs>
       <use xlink:href="#DejaVuSans-31"/>
       <use xlink:href="#DejaVuSans-30" x="63.623047"/>
      </g>
     </g>
    </g>
    <g id="ytick_3">
     <g id="line2d_7">
      <g>
       <use xlink:href="#m1fed8ece52" x="62.116875" y="185.865422" style="fill: #262626; stroke: #262626; stroke-width: 1.875"/>
      </g>
     </g>
     <g id="text_8">
      <!-- 20 -->
      <g style="fill: #262626" transform="translate(28.620625 192.134133) scale(0.165 -0.165)">
       <use xlink:href="#DejaVuSans-32"/>
       <use xlink:href="#DejaVuSans-30" x="63.623047"/>
      </g>
     </g>
    </g>
    <g id="ytick_4">
     <g id="line2d_8">
      <g>
       <use xlink:href="#m1fed8ece52" x="62.116875" y="140.705777" style="fill: #262626; stroke: #262626; stroke-width: 1.875"/>
      </g>
     </g>
     <g id="text_9">
      <!-- 30 -->
      <g style="fill: #262626" transform="translate(28.620625 146.974488) scale(0.165 -0.165)">
       <use xlink:href="#DejaVuSans-33"/>
       <use xlink:href="#DejaVuSans-30" x="63.623047"/>
      </g>
     </g>
    </g>
    <g id="ytick_5">
     <g id="line2d_9">
      <g>
       <use xlink:href="#m1fed8ece52" x="62.116875" y="95.546133" style="fill: #262626; stroke: #262626; stroke-width: 1.875"/>
      </g>
     </g>
     <g id="text_10">
      <!-- 40 -->
      <g style="fill: #262626" transform="translate(28.620625 101.814844) scale(0.165 -0.165)">
       <defs>
        <path id="DejaVuSans-34" d="M 2419 4116 
L 825 1625 
L 2419 1625 
L 2419 4116 
z
M 2253 4666 
L 3047 4666 
L 3047 1625 
L 3713 1625 
L 3713 1100 
L 3047 1100 
L 3047 0 
L 2419 0 
L 2419 1100 
L 313 1100 
L 313 1709 
L 2253 4666 
z
" transform="scale(0.015625)"/>
       </defs>
       <use xlink:href="#DejaVuSans-34"/>
       <use xlink:href="#DejaVuSans-30" x="63.623047"/>
      </g>
     </g>
    </g>
    <g id="ytick_6">
     <g id="line2d_10">
      <g>
       <use xlink:href="#m1fed8ece52" x="62.116875" y="50.386488" style="fill: #262626; stroke: #262626; stroke-width: 1.875"/>
      </g>
     </g>
     <g id="text_11">
      <!-- 50 -->
      <g style="fill: #262626" transform="translate(28.620625 56.655199) scale(0.165 -0.165)">
       <use xlink:href="#DejaVuSans-35"/>
       <use xlink:href="#DejaVuSans-30" x="63.623047"/>
      </g>
     </g>
    </g>
    <g id="text_12">
     <!-- Frequency -->
     <g style="fill: #262626" transform="translate(20.877188 191.320148) rotate(-90) scale(0.18 -0.18)">
      <defs>
       <path id="DejaVuSans-46" d="M 628 4666 
L 3309 4666 
L 3309 4134 
L 1259 4134 
L 1259 2759 
L 3109 2759 
L 3109 2228 
L 1259 2228 
L 1259 0 
L 628 0 
L 628 4666 
z
" transform="scale(0.015625)"/>
       <path id="DejaVuSans-72" d="M 2631 2963 
Q 2534 3019 2420 3045 
Q 2306 3072 2169 3072 
Q 1681 3072 1420 2755 
Q 1159 2438 1159 1844 
L 1159 0 
L 581 0 
L 581 3500 
L 1159 3500 
L 1159 2956 
Q 1341 3275 1631 3429 
Q 1922 3584 2338 3584 
Q 2397 3584 2469 3576 
Q 2541 3569 2628 3553 
L 2631 2963 
z
" transform="scale(0.015625)"/>
       <path id="DejaVuSans-65" d="M 3597 1894 
L 3597 1613 
L 953 1613 
Q 991 1019 1311 708 
Q 1631 397 2203 397 
Q 2534 397 2845 478 
Q 3156 559 3463 722 
L 3463 178 
Q 3153 47 2828 -22 
Q 2503 -91 2169 -91 
Q 1331 -91 842 396 
Q 353 884 353 1716 
Q 353 2575 817 3079 
Q 1281 3584 2069 3584 
Q 2775 3584 3186 3129 
Q 3597 2675 3597 1894 
z
M 3022 2063 
Q 3016 2534 2758 2815 
Q 2500 3097 2075 3097 
Q 1594 3097 1305 2825 
Q 1016 2553 972 2059 
L 3022 2063 
z
" transform="scale(0.015625)"/>
       <path id="DejaVuSans-71" d="M 947 1747 
Q 947 1113 1208 752 
Q 1469 391 1925 391 
Q 2381 391 2643 752 
Q 2906 1113 2906 1747 
Q 2906 2381 2643 2742 
Q 2381 3103 1925 3103 
Q 1469 3103 1208 2742 
Q 947 2381 947 1747 
z
M 2906 525 
Q 2725 213 2448 61 
Q 2172 -91 1784 -91 
Q 1150 -91 751 415 
Q 353 922 353 1747 
Q 353 2572 751 3078 
Q 1150 3584 1784 3584 
Q 2172 3584 2448 3432 
Q 2725 3281 2906 2969 
L 2906 3500 
L 3481 3500 
L 3481 -1331 
L 2906 -1331 
L 2906 525 
z
" transform="scale(0.015625)"/>
       <path id="DejaVuSans-75" d="M 544 1381 
L 544 3500 
L 1119 3500 
L 1119 1403 
Q 1119 906 1312 657 
Q 1506 409 1894 409 
Q 2359 409 2629 706 
Q 2900 1003 2900 1516 
L 2900 3500 
L 3475 3500 
L 3475 0 
L 2900 0 
L 2900 538 
Q 2691 219 2414 64 
Q 2138 -91 1772 -91 
Q 1169 -91 856 284 
Q 544 659 544 1381 
z
M 1991 3584 
L 1991 3584 
z
" transform="scale(0.015625)"/>
       <path id="DejaVuSans-6e" d="M 3513 2113 
L 3513 0 
L 2938 0 
L 2938 2094 
Q 2938 2591 2744 2837 
Q 2550 3084 2163 3084 
Q 1697 3084 1428 2787 
Q 1159 2491 1159 1978 
L 1159 0 
L 581 0 
L 581 3500 
L 1159 3500 
L 1159 2956 
Q 1366 3272 1645 3428 
Q 1925 3584 2291 3584 
Q 2894 3584 3203 3211 
Q 3513 2838 3513 2113 
z
" transform="scale(0.015625)"/>
       <path id="DejaVuSans-63" d="M 3122 3366 
L 3122 2828 
Q 2878 2963 2633 3030 
Q 2388 3097 2138 3097 
Q 1578 3097 1268 2742 
Q 959 2388 959 1747 
Q 959 1106 1268 751 
Q 1578 397 2138 397 
Q 2388 397 2633 464 
Q 2878 531 3122 666 
L 3122 134 
Q 2881 22 2623 -34 
Q 2366 -91 2075 -91 
Q 1284 -91 818 406 
Q 353 903 353 1747 
Q 353 2603 823 3093 
Q 1294 3584 2113 3584 
Q 2378 3584 2631 3529 
Q 2884 3475 3122 3366 
z
" transform="scale(0.015625)"/>
       <path id="DejaVuSans-79" d="M 2059 -325 
Q 1816 -950 1584 -1140 
Q 1353 -1331 966 -1331 
L 506 -1331 
L 506 -850 
L 844 -850 
Q 1081 -850 1212 -737 
Q 1344 -625 1503 -206 
L 1606 56 
L 191 3500 
L 800 3500 
L 1894 763 
L 2988 3500 
L 3597 3500 
L 2059 -325 
z
" transform="scale(0.015625)"/>
      </defs>
      <use xlink:href="#DejaVuSans-46"/>
      <use xlink:href="#DejaVuSans-72" x="50.269531"/>
      <use xlink:href="#DejaVuSans-65" x="89.132812"/>
      <use xlink:href="#DejaVuSans-71" x="150.65625"/>
      <use xlink:href="#DejaVuSans-75" x="214.132812"/>
      <use xlink:href="#DejaVuSans-65" x="277.511719"/>
      <use xlink:href="#DejaVuSans-6e" x="339.035156"/>
      <use xlink:href="#DejaVuSans-63" x="402.414062"/>
      <use xlink:href="#DejaVuSans-79" x="457.394531"/>
     </g>
    </g>
   </g>
   <g id="patch_3">
    <path d="M 62.116875 276.184711 
L 62.116875 -1 
M 78.795938 -1 
L 78.795938 36.838595 
L 95.475 36.838595 
L 95.475 217.477173 
L 112.154063 217.477173 
L 112.154063 217.477173 
L 128.833125 217.477173 
L 128.833125 212.961209 
L 145.512188 212.961209 
L 145.512188 203.92928 
L 162.19125 203.92928 
L 162.19125 185.865422 
L 178.870294 185.865422 
L 178.870294 167.801564 
L 195.549375 167.801564 
L 195.549375 203.92928 
L 212.228456 203.92928 
L 212.228456 212.961209 
L 228.9075 212.961209 
L 228.9075 231.025066 
L 245.586544 231.025066 
L 245.586544 249.088924 
L 262.265625 249.088924 
L 262.265625 235.541031 
L 278.944706 235.541031 
L 278.944706 262.636818 
L 295.62375 262.636818 
L 295.62375 262.636818 
L 312.302794 262.636818 
L 312.302794 271.668746 
L 328.981875 271.668746 
L 328.981875 276.184711 
" clip-path="url(#p3a385d80e0)" style="fill: none; stroke: #808080; stroke-width: 1.5; stroke-linejoin: miter"/>
   </g>
   <g id="line2d_11">
    <path d="M 87.071021 -1 
L 87.135469 36.68478 
L 103.814531 228.308888 
L 120.493594 216.1956 
L 137.172656 203.013949 
L 153.851719 193.221708 
L 170.530772 188.761048 
L 187.209834 190.56554 
L 203.888916 198.253676 
L 220.567978 210.260133 
L 237.247022 224.354631 
L 253.926084 238.313101 
L 270.605166 250.466373 
L 287.284228 259.952799 
L 303.963272 266.663456 
L 320.642334 270.99413 
" clip-path="url(#p3a385d80e0)" style="fill: none; stroke: #1f77b4; stroke-opacity: 0.9; stroke-width: 3.5; stroke-linecap: round"/>
   </g>
   <g id="line2d_12">
    <path d="M 70.456406 254.897255 
L 87.135469 243.834213 
L 103.814531 230.493187 
L 120.493594 216.207291 
L 137.172656 203.013981 
L 153.851719 193.221708 
L 170.530772 188.761048 
L 187.209834 190.56554 
L 203.888916 198.253676 
L 220.567978 210.260133 
L 237.247022 224.354631 
L 253.926084 238.313101 
L 270.605166 250.466373 
L 287.284228 259.952799 
L 303.963272 266.663456 
L 320.642334 270.99413 
" clip-path="url(#p3a385d80e0)" style="fill: none; stroke: #ff7f0e; stroke-opacity: 0.9; stroke-width: 4; stroke-linecap: round"/>
   </g>
   <g id="LineCollection_1">
    <path d="M 95.985583 276.184711 
L 95.985583 -1 
" clip-path="url(#p3a385d80e0)" style="fill: none; stroke-dasharray: 8.325,3.6; stroke-dashoffset: 0; stroke: #000000; stroke-width: 2.25"/>
   </g>
   <g id="patch_4">
    <path d="M 62.116875 276.184711 
L 62.116875 13.468711 
" style="fill: none; stroke: #262626; stroke-width: 1.875; stroke-linejoin: miter; stroke-linecap: square"/>
   </g>
   <g id="patch_5">
    <path d="M 328.981875 276.184711 
L 328.981875 13.468711 
" style="fill: none; stroke: #262626; stroke-width: 1.875; stroke-linejoin: miter; stroke-linecap: square"/>
   </g>
   <g id="patch_6">
    <path d="M 62.116875 276.184711 
L 328.981875 276.184711 
" style="fill: none; stroke: #262626; stroke-width: 1.875; stroke-linejoin: miter; stroke-linecap: square"/>
   </g>
   <g id="patch_7">
    <path d="M 62.116875 13.468711 
L 328.981875 13.468711 
" style="fill: none; stroke: #262626; stroke-width: 1.875; stroke-linejoin: miter; stroke-linecap: square"/>
   </g>
   <g id="legend_1">
    <g id="patch_8">
     <path d="M 167.529375 50.887617 
L 317.431875 50.887617 
Q 320.731875 50.887617 320.731875 47.587617 
L 320.731875 25.018711 
Q 320.731875 21.718711 317.431875 21.718711 
L 167.529375 21.718711 
Q 164.229375 21.718711 164.229375 25.018711 
L 164.229375 47.587617 
Q 164.229375 50.887617 167.529375 50.887617 
z
" style="fill: #ffffff; opacity: 0.8; stroke: #cccccc; stroke-width: 1.5; stroke-linejoin: miter"/>
    </g>
    <g id="line2d_13">
     <path d="M 170.829375 35.081133 
L 203.829375 35.081133 
" style="fill: none; stroke-dasharray: 8.325,3.6; stroke-dashoffset: 0; stroke: #000000; stroke-width: 2.25"/>
    </g>
    <g id="text_13">
     <!-- Cutoff: 0.19 -->
     <g style="fill: #262626" transform="translate(217.029375 40.856133) scale(0.165 -0.165)">
      <defs>
       <path id="DejaVuSans-43" d="M 4122 4306 
L 4122 3641 
Q 3803 3938 3442 4084 
Q 3081 4231 2675 4231 
Q 1875 4231 1450 3742 
Q 1025 3253 1025 2328 
Q 1025 1406 1450 917 
Q 1875 428 2675 428 
Q 3081 428 3442 575 
Q 3803 722 4122 1019 
L 4122 359 
Q 3791 134 3420 21 
Q 3050 -91 2638 -91 
Q 1578 -91 968 557 
Q 359 1206 359 2328 
Q 359 3453 968 4101 
Q 1578 4750 2638 4750 
Q 3056 4750 3426 4639 
Q 3797 4528 4122 4306 
z
" transform="scale(0.015625)"/>
       <path id="DejaVuSans-74" d="M 1172 4494 
L 1172 3500 
L 2356 3500 
L 2356 3053 
L 1172 3053 
L 1172 1153 
Q 1172 725 1289 603 
Q 1406 481 1766 481 
L 2356 481 
L 2356 0 
L 1766 0 
Q 1100 0 847 248 
Q 594 497 594 1153 
L 594 3053 
L 172 3053 
L 172 3500 
L 594 3500 
L 594 4494 
L 1172 4494 
z
" transform="scale(0.015625)"/>
       <path id="DejaVuSans-6f" d="M 1959 3097 
Q 1497 3097 1228 2736 
Q 959 2375 959 1747 
Q 959 1119 1226 758 
Q 1494 397 1959 397 
Q 2419 397 2687 759 
Q 2956 1122 2956 1747 
Q 2956 2369 2687 2733 
Q 2419 3097 1959 3097 
z
M 1959 3584 
Q 2709 3584 3137 3096 
Q 3566 2609 3566 1747 
Q 3566 888 3137 398 
Q 2709 -91 1959 -91 
Q 1206 -91 779 398 
Q 353 888 353 1747 
Q 353 2609 779 3096 
Q 1206 3584 1959 3584 
z
" transform="scale(0.015625)"/>
       <path id="DejaVuSans-66" d="M 2375 4863 
L 2375 4384 
L 1825 4384 
Q 1516 4384 1395 4259 
Q 1275 4134 1275 3809 
L 1275 3500 
L 2222 3500 
L 2222 3053 
L 1275 3053 
L 1275 0 
L 697 0 
L 697 3053 
L 147 3053 
L 147 3500 
L 697 3500 
L 697 3744 
Q 697 4328 969 4595 
Q 1241 4863 1831 4863 
L 2375 4863 
z
" transform="scale(0.015625)"/>
       <path id="DejaVuSans-3a" d="M 750 794 
L 1409 794 
L 1409 0 
L 750 0 
L 750 794 
z
M 750 3309 
L 1409 3309 
L 1409 2516 
L 750 2516 
L 750 3309 
z
" transform="scale(0.015625)"/>
       <path id="DejaVuSans-20" transform="scale(0.015625)"/>
       <path id="DejaVuSans-39" d="M 703 97 
L 703 672 
Q 941 559 1184 500 
Q 1428 441 1663 441 
Q 2288 441 2617 861 
Q 2947 1281 2994 2138 
Q 2813 1869 2534 1725 
Q 2256 1581 1919 1581 
Q 1219 1581 811 2004 
Q 403 2428 403 3163 
Q 403 3881 828 4315 
Q 1253 4750 1959 4750 
Q 2769 4750 3195 4129 
Q 3622 3509 3622 2328 
Q 3622 1225 3098 567 
Q 2575 -91 1691 -91 
Q 1453 -91 1209 -44 
Q 966 3 703 97 
z
M 1959 2075 
Q 2384 2075 2632 2365 
Q 2881 2656 2881 3163 
Q 2881 3666 2632 3958 
Q 2384 4250 1959 4250 
Q 1534 4250 1286 3958 
Q 1038 3666 1038 3163 
Q 1038 2656 1286 2365 
Q 1534 2075 1959 2075 
z
" transform="scale(0.015625)"/>
      </defs>
      <use xlink:href="#DejaVuSans-43"/>
      <use xlink:href="#DejaVuSans-75" x="69.824219"/>
      <use xlink:href="#DejaVuSans-74" x="133.203125"/>
      <use xlink:href="#DejaVuSans-6f" x="172.412109"/>
      <use xlink:href="#DejaVuSans-66" x="233.59375"/>
      <use xlink:href="#DejaVuSans-66" x="268.798828"/>
      <use xlink:href="#DejaVuSans-3a" x="300.378906"/>
      <use xlink:href="#DejaVuSans-20" x="334.070312"/>
      <use xlink:href="#DejaVuSans-30" x="365.857422"/>
      <use xlink:href="#DejaVuSans-2e" x="429.480469"/>
      <use xlink:href="#DejaVuSans-31" x="461.267578"/>
      <use xlink:href="#DejaVuSans-39" x="524.890625"/>
     </g>
    </g>
   </g>
  </g>
  <g id="axes_2">
   <g id="patch_9">
    <path d="M 408.481875 276.184711 
L 675.346875 276.184711 
L 675.346875 13.468711 
L 408.481875 13.468711 
z
" style="fill: #ffffff"/>
   </g>
   <g id="matplotlib.axis_3">
    <g id="xtick_5">
     <g id="line2d_14">
      <g>
       <use xlink:href="#md2cc989568" x="408.481875" y="276.184711" style="fill: #262626; stroke: #262626; stroke-width: 1.875"/>
      </g>
     </g>
     <g id="text_14">
      <!-- 0.0 -->
      <g style="fill: #262626" transform="translate(395.361797 301.222133) scale(0.165 -0.165)">
       <use xlink:href="#DejaVuSans-30"/>
       <use xlink:href="#DejaVuSans-2e" x="63.623047"/>
       <use xlink:href="#DejaVuSans-30" x="95.410156"/>
      </g>
     </g>
    </g>
    <g id="xtick_6">
     <g id="line2d_15">
      <g>
       <use xlink:href="#md2cc989568" x="461.854875" y="276.184711" style="fill: #262626; stroke: #262626; stroke-width: 1.875"/>
      </g>
     </g>
     <g id="text_15">
      <!-- 0.2 -->
      <g style="fill: #262626" transform="translate(448.734797 301.222133) scale(0.165 -0.165)">
       <use xlink:href="#DejaVuSans-30"/>
       <use xlink:href="#DejaVuSans-2e" x="63.623047"/>
       <use xlink:href="#DejaVuSans-32" x="95.410156"/>
      </g>
     </g>
    </g>
    <g id="xtick_7">
     <g id="line2d_16">
      <g>
       <use xlink:href="#md2cc989568" x="515.227875" y="276.184711" style="fill: #262626; stroke: #262626; stroke-width: 1.875"/>
      </g>
     </g>
     <g id="text_16">
      <!-- 0.4 -->
      <g style="fill: #262626" transform="translate(502.107797 301.222133) scale(0.165 -0.165)">
       <use xlink:href="#DejaVuSans-30"/>
       <use xlink:href="#DejaVuSans-2e" x="63.623047"/>
       <use xlink:href="#DejaVuSans-34" x="95.410156"/>
      </g>
     </g>
    </g>
    <g id="xtick_8">
     <g id="line2d_17">
      <g>
       <use xlink:href="#md2cc989568" x="568.600875" y="276.184711" style="fill: #262626; stroke: #262626; stroke-width: 1.875"/>
      </g>
     </g>
     <g id="text_17">
      <!-- 0.6 -->
      <g style="fill: #262626" transform="translate(555.480797 301.222133) scale(0.165 -0.165)">
       <defs>
        <path id="DejaVuSans-36" d="M 2113 2584 
Q 1688 2584 1439 2293 
Q 1191 2003 1191 1497 
Q 1191 994 1439 701 
Q 1688 409 2113 409 
Q 2538 409 2786 701 
Q 3034 994 3034 1497 
Q 3034 2003 2786 2293 
Q 2538 2584 2113 2584 
z
M 3366 4563 
L 3366 3988 
Q 3128 4100 2886 4159 
Q 2644 4219 2406 4219 
Q 1781 4219 1451 3797 
Q 1122 3375 1075 2522 
Q 1259 2794 1537 2939 
Q 1816 3084 2150 3084 
Q 2853 3084 3261 2657 
Q 3669 2231 3669 1497 
Q 3669 778 3244 343 
Q 2819 -91 2113 -91 
Q 1303 -91 875 529 
Q 447 1150 447 2328 
Q 447 3434 972 4092 
Q 1497 4750 2381 4750 
Q 2619 4750 2861 4703 
Q 3103 4656 3366 4563 
z
" transform="scale(0.015625)"/>
       </defs>
       <use xlink:href="#DejaVuSans-30"/>
       <use xlink:href="#DejaVuSans-2e" x="63.623047"/>
       <use xlink:href="#DejaVuSans-36" x="95.410156"/>
      </g>
     </g>
    </g>
    <g id="xtick_9">
     <g id="line2d_18">
      <g>
       <use xlink:href="#md2cc989568" x="621.973875" y="276.184711" style="fill: #262626; stroke: #262626; stroke-width: 1.875"/>
      </g>
     </g>
     <g id="text_18">
      <!-- 0.8 -->
      <g style="fill: #262626" transform="translate(608.853797 301.222133) scale(0.165 -0.165)">
       <defs>
        <path id="DejaVuSans-38" d="M 2034 2216 
Q 1584 2216 1326 1975 
Q 1069 1734 1069 1313 
Q 1069 891 1326 650 
Q 1584 409 2034 409 
Q 2484 409 2743 651 
Q 3003 894 3003 1313 
Q 3003 1734 2745 1975 
Q 2488 2216 2034 2216 
z
M 1403 2484 
Q 997 2584 770 2862 
Q 544 3141 544 3541 
Q 544 4100 942 4425 
Q 1341 4750 2034 4750 
Q 2731 4750 3128 4425 
Q 3525 4100 3525 3541 
Q 3525 3141 3298 2862 
Q 3072 2584 2669 2484 
Q 3125 2378 3379 2068 
Q 3634 1759 3634 1313 
Q 3634 634 3220 271 
Q 2806 -91 2034 -91 
Q 1263 -91 848 271 
Q 434 634 434 1313 
Q 434 1759 690 2068 
Q 947 2378 1403 2484 
z
M 1172 3481 
Q 1172 3119 1398 2916 
Q 1625 2713 2034 2713 
Q 2441 2713 2670 2916 
Q 2900 3119 2900 3481 
Q 2900 3844 2670 4047 
Q 2441 4250 2034 4250 
Q 1625 4250 1398 4047 
Q 1172 3844 1172 3481 
z
" transform="scale(0.015625)"/>
       </defs>
       <use xlink:href="#DejaVuSans-30"/>
       <use xlink:href="#DejaVuSans-2e" x="63.623047"/>
       <use xlink:href="#DejaVuSans-38" x="95.410156"/>
      </g>
     </g>
    </g>
    <g id="xtick_10">
     <g id="line2d_19">
      <g>
       <use xlink:href="#md2cc989568" x="675.346875" y="276.184711" style="fill: #262626; stroke: #262626; stroke-width: 1.875"/>
      </g>
     </g>
     <g id="text_19">
      <!-- 1.0 -->
      <g style="fill: #262626" transform="translate(662.226797 301.222133) scale(0.165 -0.165)">
       <use xlink:href="#DejaVuSans-31"/>
       <use xlink:href="#DejaVuSans-2e" x="63.623047"/>
       <use xlink:href="#DejaVuSans-30" x="95.410156"/>
      </g>
     </g>
    </g>
    <g id="text_20">
     <!-- FDR -->
     <g style="fill: #262626" transform="translate(523.554375 322.330805) scale(0.18 -0.18)">
      <defs>
       <path id="DejaVuSans-44" d="M 1259 4147 
L 1259 519 
L 2022 519 
Q 2988 519 3436 956 
Q 3884 1394 3884 2338 
Q 3884 3275 3436 3711 
Q 2988 4147 2022 4147 
L 1259 4147 
z
M 628 4666 
L 1925 4666 
Q 3281 4666 3915 4102 
Q 4550 3538 4550 2338 
Q 4550 1131 3912 565 
Q 3275 0 1925 0 
L 628 0 
L 628 4666 
z
" transform="scale(0.015625)"/>
       <path id="DejaVuSans-52" d="M 2841 2188 
Q 3044 2119 3236 1894 
Q 3428 1669 3622 1275 
L 4263 0 
L 3584 0 
L 2988 1197 
Q 2756 1666 2539 1819 
Q 2322 1972 1947 1972 
L 1259 1972 
L 1259 0 
L 628 0 
L 628 4666 
L 2053 4666 
Q 2853 4666 3247 4331 
Q 3641 3997 3641 3322 
Q 3641 2881 3436 2590 
Q 3231 2300 2841 2188 
z
M 1259 4147 
L 1259 2491 
L 2053 2491 
Q 2509 2491 2742 2702 
Q 2975 2913 2975 3322 
Q 2975 3731 2742 3939 
Q 2509 4147 2053 4147 
L 1259 4147 
z
" transform="scale(0.015625)"/>
      </defs>
      <use xlink:href="#DejaVuSans-46"/>
      <use xlink:href="#DejaVuSans-44" x="57.519531"/>
      <use xlink:href="#DejaVuSans-52" x="134.521484"/>
     </g>
    </g>
   </g>
   <g id="matplotlib.axis_4">
    <g id="ytick_7">
     <g id="line2d_20">
      <g>
       <use xlink:href="#m1fed8ece52" x="408.481875" y="276.184711" style="fill: #262626; stroke: #262626; stroke-width: 1.875"/>
      </g>
     </g>
     <g id="text_21">
      <!-- 0.0 -->
      <g style="fill: #262626" transform="translate(369.741719 282.453422) scale(0.165 -0.165)">
       <use xlink:href="#DejaVuSans-30"/>
       <use xlink:href="#DejaVuSans-2e" x="63.623047"/>
       <use xlink:href="#DejaVuSans-30" x="95.410156"/>
      </g>
     </g>
    </g>
    <g id="ytick_8">
     <g id="line2d_21">
      <g>
       <use xlink:href="#m1fed8ece52" x="408.481875" y="223.641511" style="fill: #262626; stroke: #262626; stroke-width: 1.875"/>
      </g>
     </g>
     <g id="text_22">
      <!-- 0.2 -->
      <g style="fill: #262626" transform="translate(369.741719 229.910222) scale(0.165 -0.165)">
       <use xlink:href="#DejaVuSans-30"/>
       <use xlink:href="#DejaVuSans-2e" x="63.623047"/>
       <use xlink:href="#DejaVuSans-32" x="95.410156"/>
      </g>
     </g>
    </g>
    <g id="ytick_9">
     <g id="line2d_22">
      <g>
       <use xlink:href="#m1fed8ece52" x="408.481875" y="171.098311" style="fill: #262626; stroke: #262626; stroke-width: 1.875"/>
      </g>
     </g>
     <g id="text_23">
      <!-- 0.4 -->
      <g style="fill: #262626" transform="translate(369.741719 177.367022) scale(0.165 -0.165)">
       <use xlink:href="#DejaVuSans-30"/>
       <use xlink:href="#DejaVuSans-2e" x="63.623047"/>
       <use xlink:href="#DejaVuSans-34" x="95.410156"/>
      </g>
     </g>
    </g>
    <g id="ytick_10">
     <g id="line2d_23">
      <g>
       <use xlink:href="#m1fed8ece52" x="408.481875" y="118.555111" style="fill: #262626; stroke: #262626; stroke-width: 1.875"/>
      </g>
     </g>
     <g id="text_24">
      <!-- 0.6 -->
      <g style="fill: #262626" transform="translate(369.741719 124.823822) scale(0.165 -0.165)">
       <use xlink:href="#DejaVuSans-30"/>
       <use xlink:href="#DejaVuSans-2e" x="63.623047"/>
       <use xlink:href="#DejaVuSans-36" x="95.410156"/>
      </g>
     </g>
    </g>
    <g id="ytick_11">
     <g id="line2d_24">
      <g>
       <use xlink:href="#m1fed8ece52" x="408.481875" y="66.011911" style="fill: #262626; stroke: #262626; stroke-width: 1.875"/>
      </g>
     </g>
     <g id="text_25">
      <!-- 0.8 -->
      <g style="fill: #262626" transform="translate(369.741719 72.280622) scale(0.165 -0.165)">
       <use xlink:href="#DejaVuSans-30"/>
       <use xlink:href="#DejaVuSans-2e" x="63.623047"/>
       <use xlink:href="#DejaVuSans-38" x="95.410156"/>
      </g>
     </g>
    </g>
    <g id="ytick_12">
     <g id="line2d_25">
      <g>
       <use xlink:href="#m1fed8ece52" x="408.481875" y="13.468711" style="fill: #262626; stroke: #262626; stroke-width: 1.875"/>
      </g>
     </g>
     <g id="text_26">
      <!-- 1.0 -->
      <g style="fill: #262626" transform="translate(369.741719 19.737422) scale(0.165 -0.165)">
       <use xlink:href="#DejaVuSans-31"/>
       <use xlink:href="#DejaVuSans-2e" x="63.623047"/>
       <use xlink:href="#DejaVuSans-30" x="95.410156"/>
      </g>
     </g>
    </g>
    <g id="text_27">
     <!-- Recall -->
     <g style="fill: #262626" transform="translate(361.998281 171.677648) rotate(-90) scale(0.18 -0.18)">
      <defs>
       <path id="DejaVuSans-61" d="M 2194 1759 
Q 1497 1759 1228 1600 
Q 959 1441 959 1056 
Q 959 750 1161 570 
Q 1363 391 1709 391 
Q 2188 391 2477 730 
Q 2766 1069 2766 1631 
L 2766 1759 
L 2194 1759 
z
M 3341 1997 
L 3341 0 
L 2766 0 
L 2766 531 
Q 2569 213 2275 61 
Q 1981 -91 1556 -91 
Q 1019 -91 701 211 
Q 384 513 384 1019 
Q 384 1609 779 1909 
Q 1175 2209 1959 2209 
L 2766 2209 
L 2766 2266 
Q 2766 2663 2505 2880 
Q 2244 3097 1772 3097 
Q 1472 3097 1187 3025 
Q 903 2953 641 2809 
L 641 3341 
Q 956 3463 1253 3523 
Q 1550 3584 1831 3584 
Q 2591 3584 2966 3190 
Q 3341 2797 3341 1997 
z
" transform="scale(0.015625)"/>
       <path id="DejaVuSans-6c" d="M 603 4863 
L 1178 4863 
L 1178 0 
L 603 0 
L 603 4863 
z
" transform="scale(0.015625)"/>
      </defs>
      <use xlink:href="#DejaVuSans-52"/>
      <use xlink:href="#DejaVuSans-65" x="64.982422"/>
      <use xlink:href="#DejaVuSans-63" x="126.505859"/>
      <use xlink:href="#DejaVuSans-61" x="181.486328"/>
      <use xlink:href="#DejaVuSans-6c" x="242.765625"/>
      <use xlink:href="#DejaVuSans-6c" x="270.548828"/>
     </g>
    </g>
   </g>
   <g id="PathCollection_1">
    <defs>
     <path id="C0_0_518667049c" d="M 0 2.5 
C 0.663008 2.5 1.29895 2.236584 1.767767 1.767767 
C 2.236584 1.29895 2.5 0.663008 2.5 -0 
C 2.5 -0.663008 2.236584 -1.29895 1.767767 -1.767767 
C 1.29895 -2.236584 0.663008 -2.5 0 -2.5 
C -0.663008 -2.5 -1.29895 -2.236584 -1.767767 -1.767767 
C -2.236584 -1.29895 -2.5 -0.663008 -2.5 0 
C -2.5 0.663008 -2.236584 1.29895 -1.767767 1.767767 
C -1.29895 2.236584 -0.663008 2.5 0 2.5 
z
"/>
    </defs>
    <g clip-path="url(#p4f2726a919)">
     <use xlink:href="#C0_0_518667049c" x="408.481875" y="273.893418" style="fill: none; stroke: #808080; stroke-width: 1.5"/>
    </g>
    <g clip-path="url(#p4f2726a919)">
     <use xlink:href="#C0_0_518667049c" x="408.481875" y="273.325319" style="fill: none; stroke: #808080; stroke-width: 1.5"/>
    </g>
    <g clip-path="url(#p4f2726a919)">
     <use xlink:href="#C0_0_518667049c" x="408.481875" y="272.638376" style="fill: none; stroke: #808080; stroke-width: 1.5"/>
    </g>
    <g clip-path="url(#p4f2726a919)">
     <use xlink:href="#C0_0_518667049c" x="408.481875" y="271.813404" style="fill: none; stroke: #808080; stroke-width: 1.5"/>
    </g>
    <g clip-path="url(#p4f2726a919)">
     <use xlink:href="#C0_0_518667049c" x="408.481875" y="270.829441" style="fill: none; stroke: #808080; stroke-width: 1.5"/>
    </g>
    <g clip-path="url(#p4f2726a919)">
     <use xlink:href="#C0_0_518667049c" x="408.481875" y="269.663866" style="fill: none; stroke: #808080; stroke-width: 1.5"/>
    </g>
    <g clip-path="url(#p4f2726a919)">
     <use xlink:href="#C0_0_518667049c" x="408.481875" y="268.292596" style="fill: none; stroke: #808080; stroke-width: 1.5"/>
    </g>
    <g clip-path="url(#p4f2726a919)">
     <use xlink:href="#C0_0_518667049c" x="408.481875" y="266.690357" style="fill: none; stroke: #808080; stroke-width: 1.5"/>
    </g>
    <g clip-path="url(#p4f2726a919)">
     <use xlink:href="#C0_0_518667049c" x="408.481875" y="264.831043" style="fill: none; stroke: #808080; stroke-width: 1.5"/>
    </g>
    <g clip-path="url(#p4f2726a919)">
     <use xlink:href="#C0_0_518667049c" x="408.481875" y="262.688152" style="fill: none; stroke: #808080; stroke-width: 1.5"/>
    </g>
    <g clip-path="url(#p4f2726a919)">
     <use xlink:href="#C0_0_518667049c" x="408.481875" y="260.235316" style="fill: none; stroke: #808080; stroke-width: 1.5"/>
    </g>
    <g clip-path="url(#p4f2726a919)">
     <use xlink:href="#C0_0_518667049c" x="408.481875" y="257.446894" style="fill: none; stroke: #808080; stroke-width: 1.5"/>
    </g>
    <g clip-path="url(#p4f2726a919)">
     <use xlink:href="#C0_0_518667049c" x="408.481875" y="254.298637" style="fill: none; stroke: #808080; stroke-width: 1.5"/>
    </g>
    <g clip-path="url(#p4f2726a919)">
     <use xlink:href="#C0_0_518667049c" x="408.481875" y="250.768407" style="fill: none; stroke: #808080; stroke-width: 1.5"/>
    </g>
    <g clip-path="url(#p4f2726a919)">
     <use xlink:href="#C0_0_518667049c" x="408.481875" y="246.836915" style="fill: none; stroke: #808080; stroke-width: 1.5"/>
    </g>
    <g clip-path="url(#p4f2726a919)">
     <use xlink:href="#C0_0_518667049c" x="408.481875" y="242.488477" style="fill: none; stroke: #808080; stroke-width: 1.5"/>
    </g>
    <g clip-path="url(#p4f2726a919)">
     <use xlink:href="#C0_0_518667049c" x="408.481875" y="237.711748" style="fill: none; stroke: #808080; stroke-width: 1.5"/>
    </g>
    <g clip-path="url(#p4f2726a919)">
     <use xlink:href="#C0_0_518667049c" x="408.481875" y="232.500408" style="fill: none; stroke: #808080; stroke-width: 1.5"/>
    </g>
    <g clip-path="url(#p4f2726a919)">
     <use xlink:href="#C0_0_518667049c" x="408.481875" y="226.853774" style="fill: none; stroke: #808080; stroke-width: 1.5"/>
    </g>
    <g clip-path="url(#p4f2726a919)">
     <use xlink:href="#C0_0_518667049c" x="408.481875" y="220.777304" style="fill: none; stroke: #808080; stroke-width: 1.5"/>
    </g>
    <g clip-path="url(#p4f2726a919)">
     <use xlink:href="#C0_0_518667049c" x="408.481875" y="214.282972" style="fill: none; stroke: #808080; stroke-width: 1.5"/>
    </g>
    <g clip-path="url(#p4f2726a919)">
     <use xlink:href="#C0_0_518667049c" x="408.481875" y="207.389484" style="fill: none; stroke: #808080; stroke-width: 1.5"/>
    </g>
    <g clip-path="url(#p4f2726a919)">
     <use xlink:href="#C0_0_518667049c" x="408.481875" y="200.122316" style="fill: none; stroke: #808080; stroke-width: 1.5"/>
    </g>
    <g clip-path="url(#p4f2726a919)">
     <use xlink:href="#C0_0_518667049c" x="408.481875" y="192.513577" style="fill: none; stroke: #808080; stroke-width: 1.5"/>
    </g>
    <g clip-path="url(#p4f2726a919)">
     <use xlink:href="#C0_0_518667049c" x="408.481875" y="184.601662" style="fill: none; stroke: #808080; stroke-width: 1.5"/>
    </g>
    <g clip-path="url(#p4f2726a919)">
     <use xlink:href="#C0_0_518667049c" x="408.481875" y="176.43072" style="fill: none; stroke: #808080; stroke-width: 1.5"/>
    </g>
    <g clip-path="url(#p4f2726a919)">
     <use xlink:href="#C0_0_518667049c" x="408.481875" y="168.049948" style="fill: none; stroke: #808080; stroke-width: 1.5"/>
    </g>
    <g clip-path="url(#p4f2726a919)">
     <use xlink:href="#C0_0_518667049c" x="408.481875" y="159.512711" style="fill: none; stroke: #808080; stroke-width: 1.5"/>
    </g>
    <g clip-path="url(#p4f2726a919)">
     <use xlink:href="#C0_0_518667049c" x="408.481875" y="150.875527" style="fill: none; stroke: #808080; stroke-width: 1.5"/>
    </g>
    <g clip-path="url(#p4f2726a919)">
     <use xlink:href="#C0_0_518667049c" x="408.481875" y="142.196951" style="fill: none; stroke: #808080; stroke-width: 1.5"/>
    </g>
    <g clip-path="url(#p4f2726a919)">
     <use xlink:href="#C0_0_518667049c" x="408.481875" y="133.536387" style="fill: none; stroke: #808080; stroke-width: 1.5"/>
    </g>
    <g clip-path="url(#p4f2726a919)">
     <use xlink:href="#C0_0_518667049c" x="408.481875" y="124.952868" style="fill: none; stroke: #808080; stroke-width: 1.5"/>
    </g>
    <g clip-path="url(#p4f2726a919)">
     <use xlink:href="#C0_0_518667049c" x="408.481875" y="116.503854" style="fill: none; stroke: #808080; stroke-width: 1.5"/>
    </g>
    <g clip-path="url(#p4f2726a919)">
     <use xlink:href="#C0_0_518667049c" x="408.481875" y="108.24408" style="fill: none; stroke: #808080; stroke-width: 1.5"/>
    </g>
    <g clip-path="url(#p4f2726a919)">
     <use xlink:href="#C0_0_518667049c" x="408.481875" y="100.224499" style="fill: none; stroke: #808080; stroke-width: 1.5"/>
    </g>
    <g clip-path="url(#p4f2726a919)">
     <use xlink:href="#C0_0_518667049c" x="408.481876" y="92.491343" style="fill: none; stroke: #808080; stroke-width: 1.5"/>
    </g>
    <g clip-path="url(#p4f2726a919)">
     <use xlink:href="#C0_0_518667049c" x="408.481881" y="85.085352" style="fill: none; stroke: #808080; stroke-width: 1.5"/>
    </g>
    <g clip-path="url(#p4f2726a919)">
     <use xlink:href="#C0_0_518667049c" x="408.481911" y="78.04116" style="fill: none; stroke: #808080; stroke-width: 1.5"/>
    </g>
    <g clip-path="url(#p4f2726a919)">
     <use xlink:href="#C0_0_518667049c" x="408.482093" y="71.386888" style="fill: none; stroke: #808080; stroke-width: 1.5"/>
    </g>
    <g clip-path="url(#p4f2726a919)">
     <use xlink:href="#C0_0_518667049c" x="408.483106" y="65.143916" style="fill: none; stroke: #808080; stroke-width: 1.5"/>
    </g>
    <g clip-path="url(#p4f2726a919)">
     <use xlink:href="#C0_0_518667049c" x="408.488431" y="59.326854" style="fill: none; stroke: #808080; stroke-width: 1.5"/>
    </g>
    <g clip-path="url(#p4f2726a919)">
     <use xlink:href="#C0_0_518667049c" x="408.514744" y="53.943691" style="fill: none; stroke: #808080; stroke-width: 1.5"/>
    </g>
    <g clip-path="url(#p4f2726a919)">
     <use xlink:href="#C0_0_518667049c" x="408.637037" y="48.996112" style="fill: none; stroke: #808080; stroke-width: 1.5"/>
    </g>
    <g clip-path="url(#p4f2726a919)">
     <use xlink:href="#C0_0_518667049c" x="409.170648" y="44.479951" style="fill: none; stroke: #808080; stroke-width: 1.5"/>
    </g>
    <g clip-path="url(#p4f2726a919)">
     <use xlink:href="#C0_0_518667049c" x="411.343514" y="40.385765" style="fill: none; stroke: #808080; stroke-width: 1.5"/>
    </g>
    <g clip-path="url(#p4f2726a919)">
     <use xlink:href="#C0_0_518667049c" x="419.42487" y="36.699495" style="fill: none; stroke: #808080; stroke-width: 1.5"/>
    </g>
    <g clip-path="url(#p4f2726a919)">
     <use xlink:href="#C0_0_518667049c" x="445.061369" y="33.403184" style="fill: none; stroke: #808080; stroke-width: 1.5"/>
    </g>
    <g clip-path="url(#p4f2726a919)">
     <use xlink:href="#C0_0_518667049c" x="503.806306" y="30.475725" style="fill: none; stroke: #808080; stroke-width: 1.5"/>
    </g>
    <g clip-path="url(#p4f2726a919)">
     <use xlink:href="#C0_0_518667049c" x="581.075299" y="27.893615" style="fill: none; stroke: #808080; stroke-width: 1.5"/>
    </g>
    <g clip-path="url(#p4f2726a919)">
     <use xlink:href="#C0_0_518667049c" x="635.402551" y="25.63168" style="fill: none; stroke: #808080; stroke-width: 1.5"/>
    </g>
   </g>
   <g id="PathCollection_2">
    <defs>
     <path id="m5265b6dbba" d="M 0 2.5 
C 0.663008 2.5 1.29895 2.236584 1.767767 1.767767 
C 2.236584 1.29895 2.5 0.663008 2.5 0 
C 2.5 -0.663008 2.236584 -1.29895 1.767767 -1.767767 
C 1.29895 -2.236584 0.663008 -2.5 0 -2.5 
C -0.663008 -2.5 -1.29895 -2.236584 -1.767767 -1.767767 
C -2.236584 -1.29895 -2.5 -0.663008 -2.5 0 
C -2.5 0.663008 -2.236584 1.29895 -1.767767 1.767767 
C -1.29895 2.236584 -0.663008 2.5 0 2.5 
z
" style="stroke: #000000; stroke-width: 1.5"/>
    </defs>
    <g clip-path="url(#p4f2726a919)">
     <use xlink:href="#m5265b6dbba" x="411.343514" y="40.385765" style="stroke: #000000; stroke-width: 1.5"/>
    </g>
   </g>
   <g id="line2d_26">
    <path d="M 408.481875 276.184711 
L 675.346875 13.468711 
" clip-path="url(#p4f2726a919)" style="fill: none; stroke-dasharray: 3.7,1.6; stroke-dashoffset: 0; stroke: #4c4c4c"/>
   </g>
   <g id="patch_10">
    <path d="M 408.481875 276.184711 
L 408.481875 13.468711 
" style="fill: none; stroke: #262626; stroke-width: 1.875; stroke-linejoin: miter; stroke-linecap: square"/>
   </g>
   <g id="patch_11">
    <path d="M 675.346875 276.184711 
L 675.346875 13.468711 
" style="fill: none; stroke: #262626; stroke-width: 1.875; stroke-linejoin: miter; stroke-linecap: square"/>
   </g>
   <g id="patch_12">
    <path d="M 408.481875 276.184711 
L 675.346875 276.184711 
" style="fill: none; stroke: #262626; stroke-width: 1.875; stroke-linejoin: miter; stroke-linecap: square"/>
   </g>
   <g id="patch_13">
    <path d="M 408.481875 13.468711 
L 675.346875 13.468711 
" style="fill: none; stroke: #262626; stroke-width: 1.875; stroke-linejoin: miter; stroke-linecap: square"/>
   </g>
   <g id="legend_2">
    <g id="patch_14">
     <path d="M 528.39375 267.934711 
L 663.796875 267.934711 
Q 667.096875 267.934711 667.096875 264.634711 
L 667.096875 242.065805 
Q 667.096875 238.765805 663.796875 238.765805 
L 528.39375 238.765805 
Q 525.09375 238.765805 525.09375 242.065805 
L 525.09375 264.634711 
Q 525.09375 267.934711 528.39375 267.934711 
z
" style="fill: #ffffff; opacity: 0.8; stroke: #cccccc; stroke-width: 1.5; stroke-linejoin: miter"/>
    </g>
    <g id="PathCollection_3">
     <g>
      <use xlink:href="#m5265b6dbba" x="548.19375" y="253.571977" style="stroke: #000000; stroke-width: 1.5"/>
     </g>
    </g>
    <g id="text_28">
     <!-- RUC: 0.89 -->
     <g style="fill: #262626" transform="translate(577.89375 257.903227) scale(0.165 -0.165)">
      <defs>
       <path id="DejaVuSans-55" d="M 556 4666 
L 1191 4666 
L 1191 1831 
Q 1191 1081 1462 751 
Q 1734 422 2344 422 
Q 2950 422 3222 751 
Q 3494 1081 3494 1831 
L 3494 4666 
L 4128 4666 
L 4128 1753 
Q 4128 841 3676 375 
Q 3225 -91 2344 -91 
Q 1459 -91 1007 375 
Q 556 841 556 1753 
L 556 4666 
z
" transform="scale(0.015625)"/>
      </defs>
      <use xlink:href="#DejaVuSans-52"/>
      <use xlink:href="#DejaVuSans-55" x="69.482422"/>
      <use xlink:href="#DejaVuSans-43" x="142.675781"/>
      <use xlink:href="#DejaVuSans-3a" x="212.5"/>
      <use xlink:href="#DejaVuSans-20" x="246.191406"/>
      <use xlink:href="#DejaVuSans-30" x="277.978516"/>
      <use xlink:href="#DejaVuSans-2e" x="341.601562"/>
      <use xlink:href="#DejaVuSans-38" x="373.388672"/>
      <use xlink:href="#DejaVuSans-39" x="437.011719"/>
     </g>
    </g>
   </g>
  </g>
 </g>
 <defs>
  <clipPath id="p3a385d80e0">
   <rect x="62.116875" y="13.468711" width="266.865" height="262.716"/>
  </clipPath>
  <clipPath id="p4f2726a919">
   <rect x="408.481875" y="13.468711" width="266.865" height="262.716"/>
  </clipPath>
 </defs>
</svg>
